<mxfile host="65bd71144e" scale="2" border="0">
    <diagram id="R6353_qkZz2MojK8Pg5P" name="Page-1">
        <mxGraphModel dx="1037" dy="804" grid="1" gridSize="10" guides="1" tooltips="1" connect="1" arrows="1" fold="1" page="1" pageScale="1" pageWidth="827" pageHeight="1169" math="0" shadow="0">
            <root>
                <mxCell id="0"/>
                <mxCell id="1" parent="0"/>
                <mxCell id="40" value="" style="rounded=0;whiteSpace=wrap;html=1;fontColor=#58585A;fillColor=#FFFFFF;strokeColor=none;" vertex="1" parent="1">
                    <mxGeometry y="30" width="850" height="310" as="geometry"/>
                </mxCell>
                <mxCell id="2" value="" style="rounded=1;whiteSpace=wrap;html=1;arcSize=9;" vertex="1" parent="1">
                    <mxGeometry x="100" y="155" width="170" height="115" as="geometry"/>
                </mxCell>
                <mxCell id="4" value="" style="rounded=1;whiteSpace=wrap;html=1;fillColor=#f5f5f5;fontColor=#333333;strokeColor=#666666;" vertex="1" parent="1">
                    <mxGeometry x="110" y="188" width="150" height="72" as="geometry"/>
                </mxCell>
                <mxCell id="7" value="Node Container" style="text;html=1;strokeColor=none;fillColor=none;align=center;verticalAlign=middle;whiteSpace=wrap;rounded=0;" vertex="1" parent="1">
                    <mxGeometry x="130" y="155" width="110" height="30" as="geometry"/>
                </mxCell>
                <mxCell id="22" value="" style="ellipse;whiteSpace=wrap;html=1;aspect=fixed;fillColor=#d5e8d4;strokeColor=#82b366;" vertex="1" parent="1">
                    <mxGeometry x="110" y="167" width="6" height="6" as="geometry"/>
                </mxCell>
                <mxCell id="23" value="" style="ellipse;whiteSpace=wrap;html=1;aspect=fixed;fillColor=#d5e8d4;strokeColor=#82b366;" vertex="1" parent="1">
                    <mxGeometry x="254" y="167" width="6" height="6" as="geometry"/>
                </mxCell>
                <mxCell id="26" value="Module Function" style="text;html=1;strokeColor=none;fillColor=none;align=center;verticalAlign=middle;whiteSpace=wrap;rounded=0;" vertex="1" parent="1">
                    <mxGeometry x="150" y="40" width="110" height="30" as="geometry"/>
                </mxCell>
                <mxCell id="28" value="" style="shape=image;verticalLabelPosition=bottom;labelBackgroundColor=default;verticalAlign=top;aspect=fixed;imageAspect=0;image=data:image/svg+xml,PHN2ZyB4bWxuczp4bGluaz0iaHR0cDovL3d3dy53My5vcmcvMTk5OS94bGluayIgeG1sbnM9Imh0dHA6Ly93d3cudzMub3JnLzIwMDAvc3ZnIiBoZWlnaHQ9IjIwMCIgd2lkdGg9IjIwMCIgdmVyc2lvbj0iMS4xIiB2aWV3Qm94PSIwIDAgMTAyNCAxMDI0IiBjbGFzcz0iaWNvbiI+PHBhdGggZmlsbD0iIzcwNzA3MCIgZD0iTTcyMy4wNzMgMjgxLjcwNHMtMTc4Ljg1NSA4LjYwOC0yNDIuMzI4IDExLjQ1OWMtMzkuMjMgMS43OTEtNjAuNTY4LTMxLjQ5Ny0yNS45NjEtNjUuODk5IDI2LjU5My0yNi4zNjkgMzYuMjc3LTMzLjgxMyAzMS43MzYtODMuMDUyLTUuMjA2LTU2LjM4NC02MS45ODgtNzQuNzEyLTEwOC41OTMtNzQuMTg4LTQ4Ljc0OSAwLjU3Ni0xMDIuMTEyIDI2LjIwNi0xMTcuODI5IDcyLjY5NS0xMC4zMzcgMzAuNDg3LTEwLjAzNiA2MS4yMjIgMTYuNzAxIDgwLjc5OCAxNC41ODggMTAuNjk3IDQ2Ljg3NCAyNi40NzIgMTAuNjU4IDU1LjMzMy0xOS41NDQgMTUuNTg5LTIxNi4zMzMtMi45MDMtMjE2LjMzMy0yLjkwM3MtOC42NyAxNjcuODk3LTIuNSAyMTUuNzI1YzMuNTI3IDI3LjQ4MyAzNy43NjggNDAuMzQzIDYwLjIwNSAxMC42MTcgMzQuNjA5LTQ1LjgwOSAxMzAuMjk0LTE1LjkyIDEzNS4xMzUgNzQuMDEgNS4wOSA5NC4zNDgtOTYuMjIzIDEwOC44ODktMTE3Ljg1IDcyLjA4OC0yMC4xODYtMzQuMzkyLTc3Ljg1Mi00Mi45NDgtODAuMzUxIDAuOTE2LTMuODY4IDY4LjI5OCAyOC4zMTMgMjg1LjYxNyAyOC4zMTMgMjg1LjYxN3MxMjkuMzQ4IDMwLjM2NSAxODcuNjQ3IDIxLjAyNmMyNy4wODItNC4zODUgMzkuNTE0LTUwLjgyMyAxNC40MTItNzIuNjMyLTIzLjA5LTIwLjAzNy0yNy45MzItMTI3LjE1NCA5Mi41NzMtMTE0Ljg1MSA5NC4yODUgOS42MjggNzguNTM3IDkxLjM2MiA1NC41NDYgMTA2LjI5My0yMy4wNzggMTQuMzEyLTIxLjk4IDU4LjkxNiAyNS45ODMgNzEuNTkxIDY1LjYyNyAxNy4zOSAyNjQuNzAxLTI1LjQ5MyAyNjQuNzAxLTI1LjQ5M3MtMjYuMzAzLTE2MC4zMzktMTcuNTAxLTIxMi4yOThjOS40MDQtNTUuNjMyIDczLjYyMy0yMi4wNjQgODEuNjQ2LTExLjQzOSA1MS45MzQgNjguNzUxIDE1OS42MzMgMzEuMTY5IDE1OS42MzMtODQuMjM2IDAtMTY4LjA3MS0xNTMuNzk3LTEzOS40OTgtMTY4LjI3LTk5LjEyNC0xNS45OTcgNDQuNDU5LTY4LjkzNiAzMy4wNjMtNzQuNjg4IDUuNzQ1LTEzLjUyMS02My44MDkgOC4zMTYtMjM3LjgwMSA4LjMxNi0yMzcuODAxeiIvPjwvc3ZnPg==;" vertex="1" parent="1">
                    <mxGeometry x="180" y="70" width="50" height="50" as="geometry"/>
                </mxCell>
                <mxCell id="29" value="Wrapper" style="shape=cube;whiteSpace=wrap;html=1;boundedLbl=1;backgroundOutline=1;darkOpacity=0.05;darkOpacity2=0.1;fillColor=#eeeeee;strokeColor=#36393d;" vertex="1" parent="1">
                    <mxGeometry x="380" y="171.25" width="100" height="82.5" as="geometry"/>
                </mxCell>
                <mxCell id="30" value="" style="rounded=1;whiteSpace=wrap;html=1;arcSize=9;" vertex="1" parent="1">
                    <mxGeometry x="590" y="155" width="170" height="115" as="geometry"/>
                </mxCell>
                <mxCell id="31" value="" style="rounded=1;whiteSpace=wrap;html=1;fillColor=#f5f5f5;fontColor=#333333;strokeColor=#666666;" vertex="1" parent="1">
                    <mxGeometry x="600" y="188" width="150" height="72" as="geometry"/>
                </mxCell>
                <mxCell id="32" value="Module" style="text;html=1;strokeColor=none;fillColor=none;align=center;verticalAlign=middle;whiteSpace=wrap;rounded=0;" vertex="1" parent="1">
                    <mxGeometry x="620" y="155" width="110" height="30" as="geometry"/>
                </mxCell>
                <mxCell id="33" value="" style="ellipse;whiteSpace=wrap;html=1;aspect=fixed;fillColor=#d5e8d4;strokeColor=#82b366;" vertex="1" parent="1">
                    <mxGeometry x="600" y="167" width="6" height="6" as="geometry"/>
                </mxCell>
                <mxCell id="34" value="" style="ellipse;whiteSpace=wrap;html=1;aspect=fixed;fillColor=#d5e8d4;strokeColor=#82b366;" vertex="1" parent="1">
                    <mxGeometry x="744" y="167" width="6" height="6" as="geometry"/>
                </mxCell>
                <mxCell id="35" value="" style="shape=image;verticalLabelPosition=bottom;labelBackgroundColor=default;verticalAlign=top;aspect=fixed;imageAspect=0;image=data:image/svg+xml,PHN2ZyB4bWxuczp4bGluaz0iaHR0cDovL3d3dy53My5vcmcvMTk5OS94bGluayIgeG1sbnM9Imh0dHA6Ly93d3cudzMub3JnLzIwMDAvc3ZnIiBoZWlnaHQ9IjIwMCIgd2lkdGg9IjIwMCIgdmVyc2lvbj0iMS4xIiB2aWV3Qm94PSIwIDAgMTAyNCAxMDI0IiBjbGFzcz0iaWNvbiI+PHBhdGggZmlsbD0iIzcwNzA3MCIgZD0iTTcyMy4wNzMgMjgxLjcwNHMtMTc4Ljg1NSA4LjYwOC0yNDIuMzI4IDExLjQ1OWMtMzkuMjMgMS43OTEtNjAuNTY4LTMxLjQ5Ny0yNS45NjEtNjUuODk5IDI2LjU5My0yNi4zNjkgMzYuMjc3LTMzLjgxMyAzMS43MzYtODMuMDUyLTUuMjA2LTU2LjM4NC02MS45ODgtNzQuNzEyLTEwOC41OTMtNzQuMTg4LTQ4Ljc0OSAwLjU3Ni0xMDIuMTEyIDI2LjIwNi0xMTcuODI5IDcyLjY5NS0xMC4zMzcgMzAuNDg3LTEwLjAzNiA2MS4yMjIgMTYuNzAxIDgwLjc5OCAxNC41ODggMTAuNjk3IDQ2Ljg3NCAyNi40NzIgMTAuNjU4IDU1LjMzMy0xOS41NDQgMTUuNTg5LTIxNi4zMzMtMi45MDMtMjE2LjMzMy0yLjkwM3MtOC42NyAxNjcuODk3LTIuNSAyMTUuNzI1YzMuNTI3IDI3LjQ4MyAzNy43NjggNDAuMzQzIDYwLjIwNSAxMC42MTcgMzQuNjA5LTQ1LjgwOSAxMzAuMjk0LTE1LjkyIDEzNS4xMzUgNzQuMDEgNS4wOSA5NC4zNDgtOTYuMjIzIDEwOC44ODktMTE3Ljg1IDcyLjA4OC0yMC4xODYtMzQuMzkyLTc3Ljg1Mi00Mi45NDgtODAuMzUxIDAuOTE2LTMuODY4IDY4LjI5OCAyOC4zMTMgMjg1LjYxNyAyOC4zMTMgMjg1LjYxN3MxMjkuMzQ4IDMwLjM2NSAxODcuNjQ3IDIxLjAyNmMyNy4wODItNC4zODUgMzkuNTE0LTUwLjgyMyAxNC40MTItNzIuNjMyLTIzLjA5LTIwLjAzNy0yNy45MzItMTI3LjE1NCA5Mi41NzMtMTE0Ljg1MSA5NC4yODUgOS42MjggNzguNTM3IDkxLjM2MiA1NC41NDYgMTA2LjI5My0yMy4wNzggMTQuMzEyLTIxLjk4IDU4LjkxNiAyNS45ODMgNzEuNTkxIDY1LjYyNyAxNy4zOSAyNjQuNzAxLTI1LjQ5MyAyNjQuNzAxLTI1LjQ5M3MtMjYuMzAzLTE2MC4zMzktMTcuNTAxLTIxMi4yOThjOS40MDQtNTUuNjMyIDczLjYyMy0yMi4wNjQgODEuNjQ2LTExLjQzOSA1MS45MzQgNjguNzUxIDE1OS42MzMgMzEuMTY5IDE1OS42MzMtODQuMjM2IDAtMTY4LjA3MS0xNTMuNzk3LTEzOS40OTgtMTY4LjI3LTk5LjEyNC0xNS45OTcgNDQuNDU5LTY4LjkzNiAzMy4wNjMtNzQuNjg4IDUuNzQ1LTEzLjUyMS02My44MDkgOC4zMTYtMjM3LjgwMSA4LjMxNi0yMzcuODAxeiIvPjwvc3ZnPg==;" vertex="1" parent="1">
                    <mxGeometry x="650" y="197.5" width="50" height="50" as="geometry"/>
                </mxCell>
                <mxCell id="36" value="" style="endArrow=open;html=1;fontColor=#58585A;entryX=0;entryY=0;entryDx=40;entryDy=0;entryPerimeter=0;exitX=1;exitY=0.5;exitDx=0;exitDy=0;endFill=0;" edge="1" parent="1" source="28" target="29">
                    <mxGeometry width="50" height="50" relative="1" as="geometry">
                        <mxPoint x="210" y="90" as="sourcePoint"/>
                        <mxPoint x="360" y="50" as="targetPoint"/>
                        <Array as="points">
                            <mxPoint x="420" y="95"/>
                            <mxPoint x="420" y="130"/>
                        </Array>
                    </mxGeometry>
                </mxCell>
                <mxCell id="37" value="" style="endArrow=open;html=1;fontColor=#58585A;exitX=1;exitY=0.5;exitDx=0;exitDy=0;endFill=0;" edge="1" parent="1" source="2" target="29">
                    <mxGeometry width="50" height="50" relative="1" as="geometry">
                        <mxPoint x="280" y="220" as="sourcePoint"/>
                        <mxPoint x="330" y="170" as="targetPoint"/>
                    </mxGeometry>
                </mxCell>
                <mxCell id="38" value="" style="endArrow=open;html=1;fontColor=#58585A;exitX=0.99;exitY=0.518;exitDx=0;exitDy=0;exitPerimeter=0;endFill=0;" edge="1" parent="1" source="29">
                    <mxGeometry width="50" height="50" relative="1" as="geometry">
                        <mxPoint x="490" y="220" as="sourcePoint"/>
                        <mxPoint x="590" y="214" as="targetPoint"/>
                    </mxGeometry>
                </mxCell>
                <mxCell id="41" value="&lt;font style=&quot;font-size: 10px;&quot;&gt;input&lt;/font&gt;" style="text;html=1;strokeColor=none;fillColor=none;align=center;verticalAlign=middle;whiteSpace=wrap;rounded=0;" vertex="1" parent="1">
                    <mxGeometry x="420" y="125" width="40" height="30" as="geometry"/>
                </mxCell>
                <mxCell id="42" value="&lt;font style=&quot;font-size: 10px;&quot;&gt;input&lt;/font&gt;" style="text;html=1;strokeColor=none;fillColor=none;align=center;verticalAlign=middle;whiteSpace=wrap;rounded=0;" vertex="1" parent="1">
                    <mxGeometry x="310" y="185" width="40" height="30" as="geometry"/>
                </mxCell>
                <mxCell id="43" value="&lt;font style=&quot;font-size: 10px;&quot;&gt;assemble&lt;/font&gt;" style="text;html=1;strokeColor=none;fillColor=none;align=center;verticalAlign=middle;whiteSpace=wrap;rounded=0;" vertex="1" parent="1">
                    <mxGeometry x="510" y="188" width="40" height="30" as="geometry"/>
                </mxCell>
            </root>
        </mxGraphModel>
    </diagram>
</mxfile>